<svg width="94" height="94" viewBox="0 0 94 94" fill="none" xmlns="http://www.w3.org/2000/svg">
<path fill-rule="evenodd" clip-rule="evenodd" d="M38.297 82.25H55.7043C67.9286 82.25 74.0405 82.25 78.4311 79.3697C80.3315 78.1226 81.9636 76.5203 83.2337 74.6544C86.1673 70.3437 86.1673 64.3426 86.1673 52.3408C86.1673 40.3393 86.1673 34.3382 83.2337 30.0275C81.9636 28.1614 80.3315 26.5591 78.4311 25.3122C75.6096 23.4613 72.0779 22.7998 66.6702 22.5634C64.0895 22.5634 61.8679 20.6435 61.3619 18.1591C60.6025 14.4325 57.2698 11.75 53.3993 11.75H40.602C36.7313 11.75 33.3987 14.4325 32.6395 18.1591C32.1335 20.6435 29.9116 22.5634 27.3312 22.5634C21.9235 22.7998 18.3916 23.4613 15.5703 25.3122C13.6696 26.5591 12.0377 28.1614 10.7676 30.0275C7.83398 34.3382 7.83398 40.3393 7.83398 52.3408C7.83398 64.3426 7.83398 70.3437 10.7676 74.6544C12.0377 76.5203 13.6696 78.1226 15.5703 79.3697C19.9609 82.25 26.0729 82.25 38.297 82.25ZM47.0007 36.3182C37.9877 36.3182 30.6812 43.4918 30.6812 52.3408C30.6812 61.1901 37.9877 68.3635 47.0007 68.3635C56.0137 68.3635 63.3202 61.1901 63.3202 52.3408C63.3202 43.4918 56.0137 36.3182 47.0007 36.3182ZM47.0007 42.7273C41.5929 42.7273 37.209 47.0313 37.209 52.3408C37.209 57.6502 41.5929 61.9546 47.0007 61.9546C52.4084 61.9546 56.7923 57.6502 56.7923 52.3408C56.7923 47.0313 52.4084 42.7273 47.0007 42.7273ZM65.4959 39.5227C65.4959 37.7529 66.9572 36.3182 68.7601 36.3182H73.1119C74.9143 36.3182 76.3757 37.7529 76.3757 39.5227C76.3757 41.2926 74.9143 42.7273 73.1119 42.7273H68.7601C66.9572 42.7273 65.4959 41.2926 65.4959 39.5227Z" fill="#4475FF"/>
</svg>
