<svg width="180" height="180" viewBox="0 0 164 164" fill="none" xmlns="http://www.w3.org/2000/svg">
<g filter="url(#filter0_dd_755_696)">
<circle cx="82" cy="82" r="70" fill="url(#paint0_linear_755_696)" fill-opacity="0.75" shape-rendering="crispEdges"/>
<circle cx="82" cy="82" r="69.5" stroke="url(#paint1_linear_755_696)" shape-rendering="crispEdges"/>
</g>
<path fill-rule="evenodd" clip-rule="evenodd" d="M73.297 117.25H90.7043C102.929 117.25 109.041 117.25 113.431 114.37C115.331 113.123 116.964 111.52 118.234 109.654C121.167 105.344 121.167 99.3426 121.167 87.3408C121.167 75.3393 121.167 69.3382 118.234 65.0275C116.964 63.1614 115.331 61.5591 113.431 60.3122C110.61 58.4613 107.078 57.7998 101.67 57.5634C99.0895 57.5634 96.8679 55.6435 96.3619 53.1591C95.6025 49.4325 92.2698 46.75 88.3993 46.75H75.602C71.7313 46.75 68.3987 49.4325 67.6395 53.1591C67.1335 55.6435 64.9116 57.5634 62.3312 57.5634C56.9235 57.7998 53.3916 58.4613 50.5703 60.3122C48.6696 61.5591 47.0377 63.1614 45.7676 65.0275C42.834 69.3382 42.834 75.3393 42.834 87.3408C42.834 99.3426 42.834 105.344 45.7676 109.654C47.0377 111.52 48.6696 113.123 50.5703 114.37C54.9609 117.25 61.0729 117.25 73.297 117.25ZM82.0007 71.3182C72.9877 71.3182 65.6812 78.4918 65.6812 87.3408C65.6812 96.1901 72.9877 103.363 82.0007 103.363C91.0137 103.363 98.3202 96.1901 98.3202 87.3408C98.3202 78.4918 91.0137 71.3182 82.0007 71.3182ZM82.0007 77.7273C76.5929 77.7273 72.209 82.0313 72.209 87.3408C72.209 92.6502 76.5929 96.9546 82.0007 96.9546C87.4084 96.9546 91.7923 92.6502 91.7923 87.3408C91.7923 82.0313 87.4084 77.7273 82.0007 77.7273ZM100.496 74.5227C100.496 72.7529 101.957 71.3182 103.76 71.3182H108.112C109.914 71.3182 111.376 72.7529 111.376 74.5227C111.376 76.2926 109.914 77.7273 108.112 77.7273H103.76C101.957 77.7273 100.496 76.2926 100.496 74.5227Z" fill="#4475FF"/>
<defs>
<filter id="filter0_dd_755_696" x="0" y="0" width="164" height="164" filterUnits="userSpaceOnUse" color-interpolation-filters="sRGB">
<feFlood flood-opacity="0" result="BackgroundImageFix"/>
<feColorMatrix in="SourceAlpha" type="matrix" values="0 0 0 0 0 0 0 0 0 0 0 0 0 0 0 0 0 0 127 0" result="hardAlpha"/>
<feOffset dx="-5" dy="-5"/>
<feGaussianBlur stdDeviation="3.5"/>
<feComposite in2="hardAlpha" operator="out"/>
<feColorMatrix type="matrix" values="0 0 0 0 1 0 0 0 0 1 0 0 0 0 1 0 0 0 0.4 0"/>
<feBlend mode="normal" in2="BackgroundImageFix" result="effect1_dropShadow_755_696"/>
<feColorMatrix in="SourceAlpha" type="matrix" values="0 0 0 0 0 0 0 0 0 0 0 0 0 0 0 0 0 0 127 0" result="hardAlpha"/>
<feOffset dx="5" dy="5"/>
<feGaussianBlur stdDeviation="3.5"/>
<feComposite in2="hardAlpha" operator="out"/>
<feColorMatrix type="matrix" values="0 0 0 0 0.266667 0 0 0 0 0.458824 0 0 0 0 1 0 0 0 0.25 0"/>
<feBlend mode="normal" in2="effect1_dropShadow_755_696" result="effect2_dropShadow_755_696"/>
<feBlend mode="normal" in="SourceGraphic" in2="effect2_dropShadow_755_696" result="shape"/>
</filter>
<linearGradient id="paint0_linear_755_696" x1="12" y1="12" x2="152" y2="152" gradientUnits="userSpaceOnUse">
<stop stop-color="white" stop-opacity="0.85"/>
<stop offset="0.799" stop-color="white" stop-opacity="0.276"/>
<stop offset="1" stop-color="#4475FF" stop-opacity="0"/>
</linearGradient>
<linearGradient id="paint1_linear_755_696" x1="12" y1="12" x2="152" y2="152" gradientUnits="userSpaceOnUse">
<stop stop-color="white"/>
<stop offset="1" stop-color="#B9CBFF"/>
</linearGradient>
</defs>
</svg>
