<svg width="29" height="27" viewBox="0 0 29 27" fill="none" xmlns="http://www.w3.org/2000/svg">
<path d="M8.25 9.07692H20.75M8.25 15.2692H20.75M2 15.7299C2.02212 17.3944 2.81348 18.9832 4.19995 20.1467C5.58639 21.3102 7.45438 21.953 9.39286 21.9338H10.3929L13.3571 24.5895C13.6591 24.8522 14.0711 25 14.5009 25C14.9307 25 15.3427 24.8522 15.6446 24.5895L18.6071 21.9338H19.6071C21.5457 21.953 23.4136 21.3102 24.8 20.1467C26.1864 18.9832 26.9779 17.3944 27 15.7299V8.20123C26.952 4.73623 23.6425 1.96039 19.6071 2.00043H9.39286C5.35752 1.96039 2.04804 4.73623 2 8.20123V15.7299Z" stroke="#0060F0" stroke-width="3" stroke-linecap="round" stroke-linejoin="round"/>
</svg>
