<svg width="17" height="18" viewBox="0 0 17 18" fill="none" xmlns="http://www.w3.org/2000/svg">
<path fill-rule="evenodd" clip-rule="evenodd" d="M7.65248 10.9309L10.7976 16.0333C10.9352 16.2569 11.1502 16.2544 11.237 16.2423C11.3239 16.2303 11.5329 16.177 11.6086 15.9233L15.5414 2.64029C15.6102 2.4055 15.4838 2.24554 15.427 2.18878C15.372 2.13202 15.2146 2.01076 14.9867 2.07526L1.69428 5.9677C1.4423 6.04166 1.38726 6.25322 1.37522 6.34008C1.36318 6.42867 1.35974 6.64797 1.58248 6.78815L6.74345 10.0158L11.3033 5.40782C11.5535 5.15498 11.962 5.1524 12.2157 5.40266C12.4694 5.65293 12.4712 6.0623 12.2209 6.31514L7.65248 10.9309ZM11.17 17.5375C10.5714 17.5375 10.0227 17.2331 9.69933 16.7102L6.36504 11.2998L0.898767 7.88123C0.309655 7.51229 0.00176921 6.85523 0.0972311 6.16464C0.191833 5.47405 0.665703 4.92535 1.33136 4.73013L14.6238 0.837693C15.2353 0.65881 15.8906 0.828233 16.3412 1.27716C16.7919 1.73039 16.9596 2.3926 16.7773 3.00666L12.8444 16.2888C12.6475 16.957 12.0971 17.4291 11.4082 17.5212C11.3273 17.5315 11.2491 17.5375 11.17 17.5375Z" fill="white"/>
</svg>
