<svg width="17" height="18" viewBox="0 0 17 18" fill="none" xmlns="http://www.w3.org/2000/svg">
<path d="M15.8571 3.28564H1" stroke="#0060F0" stroke-width="2" stroke-linecap="round"/>
<path d="M6.71484 7.85718V12.4286" stroke="#0060F0" stroke-width="2" stroke-linecap="round"/>
<path d="M10.1426 7.85718V12.4286" stroke="#0060F0" stroke-width="2" stroke-linecap="round"/>
<path d="M3.28516 3.28571C3.33741 3.28571 3.36353 3.28571 3.38722 3.28523C4.15719 3.26933 4.83645 2.87041 5.09845 2.28024C5.10651 2.26209 5.11477 2.2419 5.13129 2.2015L5.22208 1.97959C5.29958 1.79016 5.33832 1.69544 5.38972 1.61501C5.59478 1.29415 5.97416 1.07134 6.41258 1.0143C6.52247 1 6.64503 1 6.89011 1H9.96591C10.211 1 10.3336 1 10.4435 1.0143C10.8819 1.07134 11.2613 1.29415 11.4663 1.61501C11.5177 1.69544 11.5565 1.79016 11.634 1.97959L11.7248 2.2015C11.7412 2.24184 11.7496 2.2621 11.7576 2.28024C12.0196 2.87041 12.6988 3.26933 13.4689 3.28523C13.4925 3.28571 13.5186 3.28571 13.5709 3.28571" stroke="#0060F0" stroke-width="2"/>
<path d="M14.291 12.3913C14.1281 14.5759 14.0467 15.6683 13.2511 16.3341C12.4554 17.0001 11.2316 17.0001 8.78403 17.0001H8.0726C5.62504 17.0001 4.40125 17.0001 3.60556 16.3341C2.80987 15.6683 2.72847 14.5759 2.56566 12.3913L2.14258 6.71436M14.714 6.71436L14.53 9.18293" stroke="#0060F0" stroke-width="2" stroke-linecap="round"/>
</svg>
