<svg width="16" height="16" viewBox="0 0 16 16" fill="none" xmlns="http://www.w3.org/2000/svg">
<path d="M9.98091 11.4453L8.52133 9.99797C7.81704 9.29946 7.46485 8.95025 7.06078 8.82259C6.70535 8.71032 6.32333 8.71444 5.97042 8.8344C5.56914 8.97081 5.22462 9.32755 4.53559 10.041L1.03858 13.4951M9.98091 11.4453L10.2796 11.1491C10.9848 10.4498 11.3373 10.1002 11.7419 9.97251C12.0977 9.86025 12.48 9.86471 12.8331 9.98511C13.2346 10.122 13.5791 10.4797 14.268 11.195L15 11.9317M9.98091 11.4453L13.4906 14.9619M1.03858 13.4951C1.06573 13.7156 1.11196 13.8899 1.19074 14.0445C1.35851 14.3738 1.62623 14.6415 1.95552 14.8092C2.32986 15 2.8199 15 3.8 15H12.2C12.7725 15 13.1779 15 13.4906 14.9619M1.03858 13.4951C1 13.1818 1 12.7753 1 12.2V3.8C1 2.81991 1 2.32986 1.19074 1.95552C1.35851 1.62623 1.62623 1.35851 1.95552 1.19074C2.32986 1 2.8199 1 3.8 1H12.2C13.1801 1 13.6702 1 14.0445 1.19074C14.3738 1.35851 14.6415 1.62623 14.8092 1.95552C15 2.32986 15 2.81991 15 3.8V11.9317M15 11.9317V12.2C15 13.1801 15 13.6702 14.8092 14.0445C14.6415 14.3738 14.3738 14.6415 14.0445 14.8092C13.8888 14.8886 13.7131 14.9349 13.4906 14.9619M12.375 5.3749C12.375 6.34144 11.5915 7.12491 10.625 7.12491C9.65848 7.12491 8.875 6.34144 8.875 5.3749C8.875 4.40841 9.65848 3.6249 10.625 3.6249C11.5915 3.6249 12.375 4.40841 12.375 5.3749Z" stroke="#0060F0" stroke-width="2" stroke-linecap="round" stroke-linejoin="round"/>
</svg>
