<svg width="21" height="26" viewBox="0 0 21 26" fill="none" xmlns="http://www.w3.org/2000/svg">
<path fill-rule="evenodd" clip-rule="evenodd" d="M15.248 14.6547C15.248 14.1024 14.8003 13.6547 14.248 13.6547C13.6958 13.6547 13.248 14.1024 13.248 14.6547L13.248 18.2477L9.65598 18.2477C9.1037 18.2477 8.65598 18.6954 8.65598 19.2477C8.65598 19.8 9.1037 20.2477 9.65598 20.2477L13.248 20.2477V23.8398C13.248 24.392 13.6958 24.8398 14.248 24.8398C14.8003 24.8398 15.248 24.392 15.248 23.8398V20.2477L18.841 20.2477C19.3933 20.2477 19.8411 19.8 19.841 19.2477C19.841 18.6954 19.3933 18.2477 18.841 18.2477L15.248 18.2477L15.248 14.6547Z" fill="#0060F0"/>
<path fill-rule="evenodd" clip-rule="evenodd" d="M7.32177 11.8321C6.62262 11.844 5.92508 11.9212 5.25037 12.0636C4.09788 12.307 3.01204 12.7407 2.09873 13.365C0.745741 14.3 0 15.565 0 16.918C0 18.271 0.745741 19.525 2.08807 20.449C3.57956 21.483 5.53975 22 7.49998 22C7.55765 22 7.61533 21.9995 7.67299 21.9987C7.37659 21.3744 7.16986 20.6992 7.06945 19.9899C5.59254 19.9205 4.22346 19.4958 3.22757 18.8053L3.22209 18.8016C2.29003 18.16 2 17.4674 2 16.918C2 16.3667 2.29186 15.6641 3.23155 15.0132C4.33163 14.263 5.87544 13.8304 7.51332 13.8304C8.06756 13.8304 8.61002 13.88 9.12729 13.9744C9.75773 13.363 10.5028 12.8692 11.3273 12.5284C10.8314 12.332 10.3099 12.1771 9.7735 12.0636C9.10868 11.9229 8.42094 11.8459 7.73071 11.8326L7.68013 11.8317L7.65882 11.8314L7.60556 11.8308L7.55077 11.8305C7.48916 11.8303 7.42755 11.8306 7.36594 11.8314L7.32177 11.8321ZM2.43864 5.22503C2.43864 7.35661 3.65605 9.18176 5.45151 9.99316C6.03727 10.2579 6.68456 10.4147 7.37118 10.4391C7.45641 10.4281 7.54163 10.4281 7.60556 10.4391H7.65882H7.68013C8.35204 10.4147 8.98839 10.2574 9.56607 9.99195C11.3332 9.17995 12.5514 7.35555 12.5594 5.22503C12.5594 2.34301 10.2902 0 7.49902 0C4.70782 0 2.43864 2.34301 2.43864 5.22503ZM7.68024 8.43683C7.56005 8.42886 7.44536 8.42936 7.33964 8.43502C5.71597 8.32493 4.43864 6.98167 4.43864 5.22503C4.43864 3.38674 5.87227 2 7.49902 2C9.12467 2 10.5575 3.38486 10.5594 5.22129C10.5508 7.00826 9.24013 8.3414 7.68024 8.43683Z" fill="#0060F0"/>
</svg>
