<svg width="17" height="16" viewBox="0 0 17 16" fill="none" xmlns="http://www.w3.org/2000/svg">
<path d="M16.3463 0.221619C16.1883 0.123292 16.0117 0.0557761 15.8265 0.0229293C15.6413 -0.00991761 15.4512 -0.00745201 15.267 0.0301852C15.0828 0.0678223 14.9082 0.139894 14.753 0.242282C14.5979 0.34467 14.4653 0.475369 14.3629 0.626912L6.32671 12.5065L2.4076 9.03124C2.26933 8.90862 2.10723 8.81333 1.93056 8.7508C1.75389 8.68826 1.5661 8.65972 1.37793 8.66678C0.997886 8.68106 0.639324 8.83953 0.381119 9.10734C0.122914 9.37516 -0.0137829 9.73037 0.00109947 10.0948C0.0159819 10.4593 0.181225 10.8032 0.460477 11.0508L5.60628 15.6136C5.60628 15.6136 5.754 15.7355 5.82236 15.7782C5.98035 15.8766 6.15702 15.9441 6.34225 15.977C6.52749 16.0099 6.71766 16.0075 6.90191 15.9698C7.08616 15.9322 7.26087 15.8601 7.41605 15.7577C7.57123 15.6552 7.70384 15.5245 7.8063 15.3729L16.7689 2.12384C16.8714 1.97234 16.9418 1.80295 16.9761 1.62534C17.0103 1.44774 17.0078 1.26541 16.9685 1.08876C16.9293 0.912116 16.8541 0.744614 16.7474 0.595827C16.6406 0.44704 16.5043 0.319882 16.3463 0.221619Z" fill="#0060F0"/>
</svg>
