<svg width="18" height="19" viewBox="0 0 18 19" fill="none" xmlns="http://www.w3.org/2000/svg">
<path fill-rule="evenodd" clip-rule="evenodd" d="M12.532 2.5C12.8606 2.49992 13.1887 2.57093 13.4985 2.71208C13.8086 2.85338 14.0969 3.06352 14.3441 3.33561C14.5916 3.6079 14.7923 3.93624 14.9307 4.304C15.0691 4.67183 15.1412 5.0689 15.1411 5.47178C15.141 5.87466 15.0687 6.27169 14.9302 6.63943C14.7917 7.00712 14.5908 7.33533 14.3433 7.60748L14.3429 7.60782L12.0233 10.1605C11.7761 10.4325 11.4879 10.6426 11.1779 10.7839C10.8683 10.9251 10.5403 10.9961 10.2118 10.9961C9.88325 10.9961 9.55526 10.9251 9.24562 10.7839C8.93563 10.6426 8.64742 10.4325 8.40024 10.1605C8.02882 9.75179 7.39638 9.72154 6.98764 10.093C6.5789 10.4644 6.54865 11.0968 6.92007 11.5056C7.34306 11.971 7.85044 12.346 8.41608 12.6038C8.98204 12.8618 9.59254 12.9961 10.2118 12.9961C10.831 12.9961 11.4415 12.8618 12.0075 12.6038C12.5731 12.346 13.0805 11.971 13.5035 11.5056L15.8228 8.9532L15.8231 8.95286C16.2461 8.48771 16.5772 7.94048 16.8018 7.34458C17.0263 6.74859 17.141 6.1126 17.1411 5.4722C17.1413 4.8318 17.0268 4.19576 16.8025 3.59966C16.5782 3.00351 16.2472 2.45601 15.8243 1.99058C15.4012 1.52497 14.8936 1.14996 14.3278 0.892125C13.7616 0.634136 13.1509 0.499842 12.5315 0.5C11.9121 0.500159 11.3015 0.634766 10.7354 0.893039C10.1698 1.1511 9.66256 1.52623 9.23972 1.99189L9.23941 1.99223L8.28445 3.04314C7.91303 3.45188 7.94328 4.08432 8.35201 4.45574C8.76075 4.82716 9.39319 4.79691 9.76461 4.38817L10.7199 3.33692L10.7202 3.33658C10.9674 3.06434 11.2556 2.85405 11.5656 2.71258C11.8753 2.57127 12.2034 2.50008 12.532 2.5ZM6.46321 8.32939C6.77286 8.18825 7.10084 8.11719 7.42936 8.11719C7.75789 8.11719 8.08587 8.18825 8.39552 8.32939C8.7055 8.47069 8.99371 8.68078 9.2409 8.9528C9.61232 9.36154 10.2448 9.39179 10.6535 9.02037C11.0622 8.64895 11.0925 8.01651 10.7211 7.60777C10.2981 7.14229 9.79069 6.76737 9.22506 6.50954C8.65909 6.25156 8.0486 6.11719 7.42936 6.11719C6.81013 6.11719 6.19964 6.25156 5.63367 6.50954C5.06804 6.76737 4.56065 7.14229 4.13767 7.60777L1.81833 10.1601L1.81802 10.1605C1.39502 10.6256 1.0639 11.1728 0.839382 11.7687C0.614832 12.3647 0.500136 13.0007 0.5 13.6411C0.499865 14.2815 0.614292 14.9176 0.838586 15.5137C1.0629 16.1098 1.3939 16.6573 1.81683 17.1227C2.23994 17.5884 2.7475 17.9634 3.31333 18.2212C3.8795 18.4792 4.4902 18.6135 5.10962 18.6133C5.72904 18.6132 6.33968 18.4786 6.90572 18.2203C7.47129 17.9622 7.97857 17.5871 8.40141 17.1214L8.40158 17.1213L8.40172 17.1211L9.35654 16.0703C9.72796 15.6616 9.69771 15.0292 9.28897 14.6577C8.88024 14.2863 8.2478 14.3166 7.87637 14.7253L6.92125 15.7764L6.92093 15.7767C6.67378 16.049 6.38554 16.2593 6.0755 16.4007C5.7658 16.5421 5.43773 16.6132 5.10911 16.6133C4.78049 16.6134 4.4524 16.5424 4.14265 16.4012C3.83256 16.2599 3.54425 16.0498 3.297 15.7777C3.04956 15.5054 2.84884 15.1771 2.71046 14.8093C2.57206 14.4415 2.49992 14.0444 2.5 13.6415C2.50009 13.2387 2.57239 12.8416 2.71095 12.4739C2.84948 12.1062 3.05034 11.778 3.29787 11.5058L3.29818 11.5055L5.61783 8.9528C5.86502 8.68078 6.15323 8.47069 6.46321 8.32939Z" fill="#0060F0"/>
</svg>
