<svg width="14" height="19" viewBox="0 0 14 19" fill="none" xmlns="http://www.w3.org/2000/svg">
<path d="M10.8861 19H3.11365C2.66396 18.9998 2.21963 18.9006 1.81107 18.7093C1.40252 18.518 1.03938 18.2391 0.746534 17.8917C0.457807 17.5518 0.244611 17.1525 0.121535 16.721C-0.00154097 16.2895 -0.0315903 15.836 0.0334434 15.3916C0.450964 13.0764 1.66412 10.9879 3.45581 9.5C1.66409 8.01156 0.451193 5.92253 0.0342212 3.60683C-0.0306852 3.16272 -0.000644332 2.70958 0.122291 2.27837C0.245227 1.84716 0.458158 1.44806 0.746534 1.10833C1.03938 0.760907 1.40252 0.482002 1.81107 0.290708C2.21963 0.0994136 2.66396 0.000248458 3.11365 0L10.8861 0C11.3358 0.000405447 11.7801 0.0996408 12.1886 0.290924C12.5971 0.482207 12.9603 0.761029 13.2532 1.10833C13.5416 1.44792 13.7547 1.84684 13.8779 2.27788C14.0011 2.70892 14.0315 3.16194 13.9671 3.60604C13.5459 5.92242 12.3302 8.01121 10.537 9.5C12.3292 10.9901 13.5435 13.0797 13.9632 15.3963C14.0277 15.8406 13.9973 16.2937 13.8741 16.7249C13.7509 17.1561 13.5378 17.5551 13.2493 17.8948C12.9565 18.2411 12.5939 18.519 12.1861 18.7097C11.7783 18.9004 11.3349 18.9994 10.8861 19ZM10.8861 1.58333H3.11365C2.88809 1.58319 2.66515 1.63263 2.46008 1.72827C2.25501 1.82392 2.07263 1.9635 1.92543 2.1375C1.78168 2.30409 1.67546 2.50067 1.61421 2.71346C1.55295 2.92625 1.53815 3.1501 1.57083 3.36933C1.86322 5.3485 3.067 7.201 5.14795 8.87696C5.23989 8.95108 5.31419 9.04541 5.36526 9.15289C5.41633 9.26037 5.44286 9.37823 5.44286 9.49763C5.44286 9.61702 5.41633 9.73488 5.36526 9.84236C5.31419 9.94984 5.23989 10.0442 5.14795 10.1183C3.067 11.7958 1.86555 13.6499 1.57083 15.6283C1.53779 15.8479 1.55242 16.0722 1.61369 16.2854C1.67495 16.4987 1.78136 16.6956 1.92543 16.8625C2.07263 17.0365 2.25501 17.1761 2.46008 17.2717C2.66515 17.3674 2.88809 17.4168 3.11365 17.4167H10.8861C11.1117 17.4169 11.3346 17.3674 11.5397 17.2718C11.7448 17.1762 11.9272 17.0365 12.0743 16.8625C12.218 16.6962 12.3243 16.4999 12.3855 16.2874C12.4468 16.0748 12.4616 15.8512 12.4289 15.6323C12.1389 13.6634 10.9359 11.8093 8.85182 10.1207C8.76043 10.0465 8.68664 9.95235 8.63592 9.84517C8.5852 9.73799 8.55887 9.62055 8.55887 9.50158C8.55887 9.38261 8.5852 9.26518 8.63592 9.158C8.68664 9.05082 8.76043 8.95665 8.85182 8.8825C10.9367 7.19388 12.1397 5.33979 12.4289 3.37013C12.4615 3.15048 12.4462 2.92623 12.3843 2.71324C12.3224 2.50024 12.2152 2.3037 12.0704 2.1375C11.9237 1.96397 11.742 1.82465 11.5376 1.72903C11.3332 1.6334 11.111 1.58371 10.8861 1.58333ZM9.86041 15.8333H4.13469C4.00745 15.8333 3.88217 15.8014 3.76984 15.7406C3.6575 15.6798 3.56154 15.5918 3.49038 15.4844C3.41922 15.3771 3.37503 15.2535 3.36168 15.1247C3.34833 14.9959 3.36623 14.8657 3.41382 14.7456C4.02277 13.407 4.95059 12.2444 6.11299 11.3636L6.5158 11.0374C6.65341 10.926 6.82405 10.8653 6.99988 10.8653C7.17571 10.8653 7.34635 10.926 7.48396 11.0374L7.87978 11.3588C9.04054 12.2431 9.96835 13.4061 10.5805 14.744C10.6284 14.8642 10.6466 14.9944 10.6334 15.1234C10.6203 15.2524 10.5762 15.3761 10.5051 15.4837C10.434 15.5912 10.338 15.6794 10.2256 15.7404C10.1132 15.8013 9.98778 15.8333 9.86041 15.8333ZM5.46911 14.25H8.52366C8.07996 13.6613 7.56763 13.1296 6.99794 12.6667C6.42572 13.1278 5.91216 13.6596 5.46911 14.25Z" fill="#0060F0"/>
</svg>
