<svg width="26" height="26" viewBox="0 0 26 26" fill="none" xmlns="http://www.w3.org/2000/svg">
<path fill-rule="evenodd" clip-rule="evenodd" d="M5.19961 11.7C5.19961 9.97607 5.88443 8.32277 7.10342 7.10378C8.3224 5.8848 9.9757 5.19998 11.6996 5.19998C13.4235 5.19998 15.0768 5.8848 16.2958 7.10378C17.5148 8.32277 18.1996 9.97607 18.1996 11.7C18.1996 13.4239 17.5148 15.0772 16.2958 16.2962C15.0768 17.5152 13.4235 18.2 11.6996 18.2C9.9757 18.2 8.3224 17.5152 7.10342 16.2962C5.88443 15.0772 5.19961 13.4239 5.19961 11.7ZM11.6996 2.59998C10.2577 2.59998 8.83643 2.94262 7.55292 3.59967C6.26941 4.25672 5.16041 5.20937 4.31731 6.37911C3.47421 7.54885 2.92114 8.9022 2.70369 10.3276C2.48623 11.753 2.61062 13.2097 3.06659 14.5776C3.52257 15.9456 4.29707 17.1856 5.32629 18.1954C6.3555 19.2053 7.60996 19.9561 8.98629 20.386C10.3626 20.816 11.8214 20.9127 13.2424 20.6682C14.6635 20.4238 16.0061 19.8451 17.1596 18.98C17.1966 19.0291 17.237 19.0756 17.2805 19.1191L21.1805 23.0191C21.4257 23.2559 21.7541 23.3869 22.0949 23.384C22.4358 23.381 22.7618 23.2443 23.0029 23.0032C23.2439 22.7622 23.3806 22.4362 23.3836 22.0953C23.3865 21.7544 23.2555 21.4261 23.0187 21.1809L19.1187 17.2809C19.0753 17.2373 19.0288 17.1969 18.9796 17.16C19.9936 15.808 20.6111 14.2004 20.7628 12.5172C20.9146 10.8341 20.5947 9.1419 19.8389 7.63033C19.0831 6.11877 17.9213 4.84753 16.4838 3.95905C15.0462 3.07058 13.3896 2.59998 11.6996 2.59998Z" fill="white"/>
</svg>
