<svg width="22" height="24" viewBox="0 0 22 24" fill="none" xmlns="http://www.w3.org/2000/svg">
<path fill-rule="evenodd" clip-rule="evenodd" d="M15.8026 3.5C16.1775 3.4999 16.5528 3.58087 16.9084 3.74291C17.2645 3.90518 17.5979 4.14754 17.8853 4.46386C18.173 4.78046 18.4079 5.16394 18.5703 5.5956C18.7328 6.02735 18.8178 6.49435 18.8177 6.96881C18.8176 7.44327 18.7324 7.91022 18.5698 8.34187C18.4072 8.77343 18.1721 9.15677 17.8843 9.4732L17.8838 9.47372L14.9818 12.6673C14.6945 12.9835 14.3612 13.2258 14.0052 13.3881C13.6497 13.5501 13.2746 13.6311 12.8998 13.6311C12.525 13.6311 12.1498 13.5501 11.7943 13.3881C11.4384 13.2258 11.1051 12.9835 10.8177 12.6673C10.2606 12.0541 9.31194 12.0088 8.69883 12.5659C8.08573 13.123 8.04035 14.0717 8.59749 14.6848C9.14854 15.2912 9.81059 15.7808 10.55 16.1178C11.29 16.4551 12.0889 16.6311 12.8998 16.6311C13.7107 16.6311 14.5096 16.4551 15.2495 16.1178C15.989 15.7808 16.651 15.2912 17.2021 14.6848L20.1036 11.4918L20.1039 11.4914L20.1041 11.4913C20.6551 10.8853 21.0855 10.1735 21.3771 9.3996C21.6687 8.62558 21.8175 7.80018 21.8177 6.96944C21.8178 6.13871 21.6694 5.31324 21.3781 4.53909C21.0868 3.76485 20.6565 3.05262 20.1055 2.44631C19.5543 1.83972 18.8921 1.35005 18.1523 1.01298C17.4121 0.675677 16.6129 0.499792 15.8018 0.5C14.9907 0.500208 14.1916 0.676501 13.4515 1.01417C12.7122 1.35152 12.0503 1.84133 11.4995 2.44795L11.4993 2.44817L11.499 2.44846L10.3044 3.7631C9.74724 4.37621 9.79262 5.32487 10.4057 5.882C11.0188 6.43913 11.9675 6.39376 12.5246 5.78065L13.7197 4.4655L13.7202 4.46498C14.0075 4.1485 14.3408 3.90594 14.6969 3.74349C15.0524 3.58126 15.4277 3.5001 15.8026 3.5ZM8.31245 10.7704C8.66792 10.6084 9.04307 10.5274 9.41788 10.5274C9.7927 10.5274 10.1678 10.6084 10.5233 10.7704C10.8793 10.9327 11.2126 11.175 11.4999 11.4913C12.0571 12.1044 13.0057 12.1497 13.6188 11.5926C14.2319 11.0355 14.2773 10.0868 13.7202 9.4737C13.1691 8.86729 12.5071 8.37773 11.7676 8.04067C11.0277 7.70338 10.2288 7.52739 9.41788 7.52739C8.60701 7.52739 7.80809 7.70338 7.06814 8.04067C6.32868 8.37773 5.66664 8.86729 5.11558 9.4737L2.21407 12.6667L2.21376 12.6671L2.21361 12.6672C1.6626 13.2732 1.23215 13.985 0.940568 14.7589C0.648941 15.5329 0.500176 16.3583 0.5 17.1891C0.499824 18.0198 0.648241 18.8453 0.939534 19.6194C1.23086 20.3937 1.66116 21.1059 2.21212 21.7122C2.76333 22.3188 3.42561 22.8085 4.16533 23.1455C4.90554 23.4828 5.70474 23.6587 6.51585 23.6585C7.32697 23.6583 8.12608 23.482 8.86613 23.1443C9.60568 22.8069 10.2677 22.3169 10.8187 21.71L12.0131 20.3956C12.5702 19.7825 12.5249 18.8338 11.9118 18.2767C11.2987 17.7196 10.35 17.765 9.79286 18.3781L8.59796 19.693L8.59749 19.6935C8.31017 20.01 7.97685 20.2526 7.6208 20.415C7.26526 20.5772 6.89001 20.6584 6.51509 20.6585C6.14016 20.6586 5.76489 20.5776 5.4093 20.4156C5.0532 20.2533 4.71981 20.011 4.43237 19.6946C4.14467 19.378 3.90977 18.9946 3.74734 18.5629C3.58489 18.1312 3.4999 17.6642 3.5 17.1897C3.5001 16.7152 3.58529 16.2483 3.74792 15.8166C3.91052 15.3851 4.14557 15.0017 4.43339 14.6853L4.43385 14.6848L7.33583 11.4913C7.62319 11.175 7.95647 10.9327 8.31245 10.7704Z" fill="white"/>
</svg>
