<svg width="27" height="30" viewBox="0 0 27 30" fill="none" xmlns="http://www.w3.org/2000/svg">
<path fill-rule="evenodd" clip-rule="evenodd" d="M10.0609 0.613044C9 1.55353 9 3.27388 9 6.7146V23.2854C9 26.7261 9 28.4465 10.0609 29.387C11.1217 30.3275 12.7433 30.0446 15.9864 29.4789L19.4796 28.8698C23.0713 28.2432 24.8672 27.93 25.9337 26.6126C27 25.2953 27 23.39 27 19.5794V10.4207C27 6.61007 27 4.70478 25.9337 3.38739C24.8672 2.06998 23.0713 1.75677 19.4796 1.1303L15.9864 0.521034C12.7433 -0.0446171 11.1217 -0.327442 10.0609 0.613044ZM13.5 12.2529C14.1213 12.2529 14.625 12.78 14.625 13.4303V16.5698C14.625 17.22 14.1213 17.7471 13.5 17.7471C12.8787 17.7471 12.375 17.22 12.375 16.5698V13.4303C12.375 12.78 12.8787 12.2529 13.5 12.2529Z" fill="url(#paint0_linear_891_699)"/>
<path d="M6 3C3.2841 3.0046 1.8684 3.074 0.966179 4.12246C-7.86484e-08 5.24524 0 7.05234 0 10.6665V18.3334C0 21.9476 -7.86484e-08 23.7547 0.966179 24.8776C1.8684 25.9259 3.2841 25.9954 6 26C5.93756 25.0442 5.93765 23.9393 5.93777 22.745V6.25489C5.93765 5.06067 5.93756 3.95575 6 3Z" fill="url(#paint1_linear_891_699)"/>
<defs>
<linearGradient id="paint0_linear_891_699" x1="8.79359" y1="0.200001" x2="31.2042" y2="26.374" gradientUnits="userSpaceOnUse">
<stop stop-color="#4992FF"/>
<stop offset="1" stop-color="#0060F0"/>
</linearGradient>
<linearGradient id="paint1_linear_891_699" x1="-0.0688036" y1="3.15333" x2="13.971" y2="10.2826" gradientUnits="userSpaceOnUse">
<stop stop-color="#4992FF"/>
<stop offset="1" stop-color="#0060F0"/>
</linearGradient>
</defs>
</svg>
