<svg width="44" height="43" viewBox="0 0 44 43" fill="none" xmlns="http://www.w3.org/2000/svg">
<path d="M15.963 7.62643C15.963 3.41985 19.392 0 23.6098 0C27.8276 0 31.2566 3.41985 31.2566 7.62643C31.2405 11.7527 28.0047 15.0923 23.8835 15.2368H23.7708C23.6742 15.2207 23.5454 15.2207 23.4166 15.2368C19.1988 15.0923 15.963 11.7527 15.963 7.62643Z" fill="url(#paint0_linear_942_702)"/>
<path d="M15.4493 19.5074C19.973 16.5211 27.2978 16.5211 31.7893 19.5074C33.8177 20.8561 34.9285 22.6864 34.9446 24.6613C34.9446 26.6522 33.8177 28.4825 31.7893 29.8473C29.5355 31.3565 26.5734 32.1111 23.6112 32.1111C21.6555 32.1111 19.6998 31.7821 17.9479 31.1242C18.6353 30.1879 19.0006 29.1402 19.0006 28.04C18.9857 26.195 17.9566 24.4849 16.0773 23.2249C15.1947 22.6332 14.194 22.1669 13.125 21.8262C13.6617 20.9649 14.4447 20.178 15.4493 19.5074Z" fill="url(#paint1_linear_942_702)"/>
<path d="M8.49889 9.44446C5.33553 9.44446 2.76379 12.0596 2.76379 15.2764C2.76379 18.4318 5.19064 20.9856 8.354 21.0961C8.45059 21.0838 8.54719 21.0838 8.61963 21.0961C8.64378 21.0961 8.65585 21.0961 8.68 21.0961C8.69207 21.0961 8.69207 21.0961 8.70415 21.0961C11.7951 20.9856 14.2219 18.4318 14.234 15.2764C14.234 12.0596 11.6623 9.44446 8.49889 9.44446Z" fill="url(#paint2_linear_942_702)"/>
<path d="M14.6335 24.3619C11.2649 22.0782 5.77132 22.0782 2.37856 24.3619C0.845173 25.4055 0 26.8175 0 28.3277C0 29.8378 0.845173 31.2375 2.36648 32.2688C4.05683 33.423 6.27838 34 8.49998 34C10.7216 34 12.9432 33.423 14.6335 32.2688C16.1548 31.2252 17 29.8255 17 28.3031C16.9879 26.7929 16.1548 25.3932 14.6335 24.3619Z" fill="url(#paint3_linear_942_702)"/>
<circle cx="38.5" cy="37.5" r="5.5" fill="url(#paint4_linear_942_702)"/>
<defs>
<linearGradient id="paint0_linear_942_702" x1="-0.194945" y1="9.60815" x2="17.5734" y2="33.5531" gradientUnits="userSpaceOnUse">
<stop stop-color="#4992FF"/>
<stop offset="1" stop-color="#0060F0"/>
</linearGradient>
<linearGradient id="paint1_linear_942_702" x1="-0.194945" y1="9.60815" x2="17.5734" y2="33.5531" gradientUnits="userSpaceOnUse">
<stop stop-color="#4992FF"/>
<stop offset="1" stop-color="#0060F0"/>
</linearGradient>
<linearGradient id="paint2_linear_942_702" x1="-0.194945" y1="9.60815" x2="17.5734" y2="33.5531" gradientUnits="userSpaceOnUse">
<stop stop-color="#4992FF"/>
<stop offset="1" stop-color="#0060F0"/>
</linearGradient>
<linearGradient id="paint3_linear_942_702" x1="-0.194945" y1="9.60815" x2="17.5734" y2="33.5531" gradientUnits="userSpaceOnUse">
<stop stop-color="#4992FF"/>
<stop offset="1" stop-color="#0060F0"/>
</linearGradient>
<linearGradient id="paint4_linear_942_702" x1="32.9386" y1="35.1085" x2="38.7311" y2="42.7035" gradientUnits="userSpaceOnUse">
<stop stop-color="#4992FF"/>
<stop offset="1" stop-color="#0060F0"/>
</linearGradient>
</defs>
</svg>
