<svg width="35" height="35" viewBox="0 0 35 35" fill="none" xmlns="http://www.w3.org/2000/svg">
<path d="M19.6019 6.98864H8.39081C7.93536 6.98864 7.49742 7.00611 7.07701 7.05853C2.36484 7.46038 0 10.2384 0 15.3575V22.3462C0 29.3348 2.80277 30.7151 8.39081 30.7151H9.0915C9.47688 30.7151 9.98489 30.9772 10.2126 31.2742L12.3147 34.0696C13.2431 35.3101 14.7496 35.3101 15.678 34.0696L17.7801 31.2742C18.0429 30.9247 18.4633 30.7151 18.9012 30.7151H19.6019C24.7345 30.7151 27.5197 28.3739 27.9226 23.6566C27.9752 23.2372 27.9927 22.8004 27.9927 22.3462V15.3575C27.9927 9.7841 25.1899 6.98864 19.6019 6.98864ZM7.8828 20.9659C6.90183 20.9659 6.13107 20.1797 6.13107 19.2188C6.13107 18.2578 6.91935 17.4716 7.8828 17.4716C8.84626 17.4716 9.63454 18.2578 9.63454 19.2188C9.63454 20.1797 8.84626 20.9659 7.8828 20.9659ZM13.9964 20.9659C13.0154 20.9659 12.2446 20.1797 12.2446 19.2188C12.2446 18.2578 13.0329 17.4716 13.9964 17.4716C14.9598 17.4716 15.7481 18.2578 15.7481 19.2188C15.7481 20.1797 14.9773 20.9659 13.9964 20.9659ZM20.1274 20.9659C19.1465 20.9659 18.3757 20.1797 18.3757 19.2188C18.3757 18.2578 19.164 17.4716 20.1274 17.4716C21.0909 17.4716 21.8792 18.2578 21.8792 19.2188C21.8792 20.1797 21.0909 20.9659 20.1274 20.9659Z" fill="url(#paint0_linear_712_1229)"/>
<path d="M35 8.3689V15.3575C35 18.8519 33.9139 21.228 31.7418 22.5384C31.2163 22.8529 30.6031 22.4335 30.6031 21.822L30.6207 15.3575C30.6207 8.3689 26.6092 4.3679 19.6023 4.3679L8.93428 4.38537C8.32118 4.38537 7.90076 3.77387 8.21607 3.24972C9.52987 1.08324 11.9122 0 15.3981 0H26.6092C32.1972 0 35 2.79546 35 8.3689Z" fill="url(#paint1_linear_712_1229)"/>
<defs>
<linearGradient id="paint0_linear_712_1229" x1="-0.401354" y1="0.233335" x2="21.1096" y2="42.1053" gradientUnits="userSpaceOnUse">
<stop stop-color="#4992FF"/>
<stop offset="1" stop-color="#0060F0"/>
</linearGradient>
<linearGradient id="paint1_linear_712_1229" x1="-0.401354" y1="0.233335" x2="21.1096" y2="42.1053" gradientUnits="userSpaceOnUse">
<stop stop-color="#4992FF"/>
<stop offset="1" stop-color="#0060F0"/>
</linearGradient>
</defs>
</svg>
