<svg width="39" height="39" viewBox="0 0 39 39" fill="none" xmlns="http://www.w3.org/2000/svg">
<path d="M26 4.875C27.7134 4.875 29.117 6.2008 29.2411 7.88245L29.25 8.125V16.25H31.6875C32.9545 16.25 33.9957 17.2167 34.1138 18.4528L34.125 18.6875V30.875C34.125 33.4713 32.0956 35.5935 29.5365 35.7417L29.25 35.75H8.125C6.41166 35.75 5.00798 34.4242 4.88392 32.7426L4.875 32.5V8.125C4.875 6.41166 6.2008 5.00798 7.88245 4.88392L8.125 4.875H26ZM30.875 19.5H29.25V32.5C30.1475 32.5 30.875 31.7725 30.875 30.875V19.5ZM17.875 21.125H13C12.1025 21.125 11.375 21.8525 11.375 22.75C11.375 23.5834 12.0023 24.2702 12.8105 24.3641L13 24.375H17.875C18.7725 24.375 19.5 23.6475 19.5 22.75C19.5 21.9166 18.8727 21.2298 18.0645 21.1359L17.875 21.125ZM21.125 13H13C12.1025 13 11.375 13.7275 11.375 14.625C11.375 15.5225 12.1025 16.25 13 16.25H21.125C22.0225 16.25 22.75 15.5225 22.75 14.625C22.75 13.7275 22.0225 13 21.125 13Z" fill="url(#paint0_linear_713_736)"/>
<defs>
<linearGradient id="paint0_linear_713_736" x1="-0.447223" y1="0.260002" x2="23.5221" y2="46.9173" gradientUnits="userSpaceOnUse">
<stop offset="0.244" stop-color="white"/>
<stop offset="1" stop-color="#5F9FFF"/>
</linearGradient>
</defs>
</svg>
