<svg width="34" height="30" viewBox="0 0 34 30" fill="none" xmlns="http://www.w3.org/2000/svg">
<path fill-rule="evenodd" clip-rule="evenodd" d="M13.297 30H20.7043C25.9062 30 28.507 30 30.3753 28.7743C31.184 28.2437 31.8785 27.5618 32.419 26.7678C33.6673 24.9335 33.6673 22.3798 33.6673 17.2727C33.6673 12.1657 33.6673 9.61202 32.419 7.77767C31.8785 6.98357 31.184 6.30173 30.3753 5.77113C29.1747 4.98355 27.6718 4.70205 25.3707 4.60143C24.2725 4.60143 23.3272 3.78447 23.1118 2.72727C22.7887 1.14148 21.3705 0 19.7235 0H14.2778C12.6307 0 11.2126 1.14148 10.8895 2.72727C10.6742 3.78447 9.72873 4.60143 8.63065 4.60143C6.32954 4.70205 4.82657 4.98355 3.62605 5.77113C2.81723 6.30173 2.12278 6.98357 1.58235 7.77767C0.333985 9.61202 0.333984 12.1657 0.333984 17.2727C0.333984 22.3798 0.333985 24.9335 1.58235 26.7678C2.12278 27.5618 2.81723 28.2437 3.62605 28.7743C5.49438 30 8.09523 30 13.297 30ZM17.0007 10.4545C13.1653 10.4545 10.0562 13.5072 10.0562 17.2727C10.0562 21.0383 13.1653 24.0908 17.0007 24.0908C20.836 24.0908 23.9452 21.0383 23.9452 17.2727C23.9452 13.5072 20.836 10.4545 17.0007 10.4545ZM17.0007 13.1818C14.6995 13.1818 12.834 15.0133 12.834 17.2727C12.834 19.532 14.6995 21.3637 17.0007 21.3637C19.3018 21.3637 21.1673 19.532 21.1673 17.2727C21.1673 15.0133 19.3018 13.1818 17.0007 13.1818ZM24.871 11.8182C24.871 11.0651 25.4928 10.4545 26.26 10.4545H28.1118C28.8788 10.4545 29.5007 11.0651 29.5007 11.8182C29.5007 12.5713 28.8788 13.1818 28.1118 13.1818H26.26C25.4928 13.1818 24.871 12.5713 24.871 11.8182Z" fill="url(#paint0_linear_712_1237)"/>
<defs>
<linearGradient id="paint0_linear_712_1237" x1="-0.0482577" y1="0.200001" x2="17.2314" y2="37.573" gradientUnits="userSpaceOnUse">
<stop stop-color="#4992FF"/>
<stop offset="1" stop-color="#0060F0"/>
</linearGradient>
</defs>
</svg>
