<svg width="27" height="38" viewBox="0 0 27 38" fill="none" xmlns="http://www.w3.org/2000/svg">
<path d="M13.1982 0C8.28574 0 4.29199 3.99375 4.29199 8.90625C4.29199 13.725 8.06074 17.625 12.9732 17.7937C13.1232 17.775 13.2732 17.775 13.3857 17.7937C13.4232 17.7937 13.442 17.7937 13.4795 17.7937C13.4982 17.7937 13.4982 17.7937 13.517 17.7937C18.317 17.625 22.0857 13.725 22.1045 8.90625C22.1045 3.99375 18.1107 0 13.1982 0Z" fill="url(#paint0_linear_712_1227)"/>
<path d="M22.7249 22.7811C17.4937 19.2936 8.9625 19.2936 3.69375 22.7811C1.3125 24.3748 0 26.5311 0 28.8373C0 31.1436 1.3125 33.2811 3.675 34.8561C6.3 36.6186 9.74993 37.4998 13.1999 37.4998C16.6499 37.4998 20.0999 36.6186 22.7249 34.8561C25.0874 33.2623 26.3999 31.1248 26.3999 28.7998C26.3812 26.4936 25.0874 24.3561 22.7249 22.7811Z" fill="url(#paint1_linear_712_1227)"/>
<defs>
<linearGradient id="paint0_linear_712_1227" x1="0" y1="0" x2="35.303" y2="24.8534" gradientUnits="userSpaceOnUse">
<stop stop-color="#4992FF"/>
<stop offset="1" stop-color="#0060F0"/>
</linearGradient>
<linearGradient id="paint1_linear_712_1227" x1="0" y1="0" x2="35.303" y2="24.8534" gradientUnits="userSpaceOnUse">
<stop stop-color="#4992FF"/>
<stop offset="1" stop-color="#0060F0"/>
</linearGradient>
</defs>
</svg>
