<svg width="30" height="30" viewBox="0 0 30 30" fill="none" xmlns="http://www.w3.org/2000/svg">
<path fill-rule="evenodd" clip-rule="evenodd" d="M15 0C16.4826 0 17.2239 0 17.8086 0.22836C18.5883 0.532845 19.2077 1.11687 19.5306 1.85195C19.6781 2.18749 19.7357 2.57772 19.7583 3.14691C19.7916 3.98349 20.2467 4.75786 21.0156 5.17644C21.7846 5.59503 22.7234 5.57938 23.5084 5.1882C24.0424 4.92204 24.4298 4.77403 24.8117 4.72663C25.6484 4.62278 26.4945 4.83654 27.164 5.3209C27.6661 5.68407 28.0366 6.2891 28.7775 7.49895L28.7782 7.5C29.5195 8.71054 29.8901 9.31582 29.9728 9.90745C30.0829 10.6963 29.8561 11.4941 29.3425 12.1252C29.1079 12.4135 28.7783 12.6556 28.2666 12.9588C27.5149 13.4041 27.0311 14.1627 27.0311 14.9998C27.0311 15.837 27.5149 16.5958 28.2666 17.0412C28.7782 17.3442 29.1077 17.5864 29.3423 17.8746C29.856 18.5058 30.0827 19.3036 29.9726 20.0925C29.8899 20.6841 29.5193 21.2894 28.778 22.4998L28.7778 22.5002C28.0366 23.7106 27.6661 24.3158 27.1639 24.679C26.4944 25.1634 25.6482 25.3771 24.8116 25.2732C24.4296 25.2258 24.0424 25.0779 23.5083 24.8118C22.7232 24.4206 21.7844 24.4048 21.0154 24.8235C20.2465 25.2421 19.7916 26.0164 19.7584 26.853C19.7359 27.4222 19.6781 27.8125 19.5306 28.1481C19.2077 28.8831 18.5883 29.4672 17.8086 29.7717C17.2239 30 16.4826 30 15 30C13.5174 30 12.776 30 12.1914 29.7717C11.4117 29.4672 10.7922 28.8831 10.4693 28.1481C10.3219 27.8125 10.2642 27.4222 10.2416 26.8531C10.2084 26.0164 9.75336 25.2421 8.98439 24.8235C8.21541 24.405 7.2766 24.4206 6.49156 24.8118C5.95744 25.0779 5.57017 25.2259 5.18824 25.2733C4.35156 25.3771 3.50538 25.1634 2.83588 24.679C2.33389 24.316 1.9633 23.7109 1.22244 22.5011L1.22178 22.5C0.480501 21.2895 0.109844 20.6841 0.0272334 20.0925C-0.0829139 19.3036 0.143807 18.5059 0.657548 17.8747C0.892053 17.5866 1.22166 17.3443 1.73321 17.0412C2.48504 16.5958 2.96882 15.8371 2.96887 15C2.96892 14.1628 2.48512 13.404 1.73321 12.9585C1.22174 12.6555 0.892195 12.4134 0.657706 12.1252C0.143965 11.494 -0.0827719 10.6962 0.0273911 9.90736C0.110001 9.31572 0.480639 8.71046 1.22193 7.49991L1.22194 7.49989C1.96324 6.28935 2.3339 5.68407 2.83604 5.3208C3.50554 4.83643 4.35171 4.62267 5.1884 4.72653C5.57034 4.77393 5.95764 4.92195 6.49182 5.18814C7.27679 5.57931 8.21554 5.59494 8.98447 5.17639C9.7534 4.75783 10.2084 3.98352 10.2416 3.14698C10.2642 2.57775 10.3219 2.18751 10.4693 1.85195C10.7922 1.11687 11.4117 0.532845 12.1914 0.22836C12.776 0 13.5174 0 15 0ZM14.9995 19.5001C17.6355 19.5001 19.7723 17.4855 19.7723 15.0001C19.7723 12.5148 17.6355 10.5001 14.9995 10.5001C12.3634 10.5001 10.2266 12.5148 10.2266 15.0001C10.2266 17.4855 12.3634 19.5001 14.9995 19.5001Z" fill="url(#paint0_linear_950_715)"/>
<defs>
<linearGradient id="paint0_linear_950_715" x1="-0.344018" y1="0.200001" x2="18.0939" y2="36.0903" gradientUnits="userSpaceOnUse">
<stop offset="0.244" stop-color="white"/>
<stop offset="1" stop-color="#5F9FFF"/>
</linearGradient>
</defs>
</svg>
